<svg xmlns="http://www.w3.org/2000/svg" width="44" height="44" viewBox="0 0 44 44" fill="none" data-id="root">
<rect width="44" height="44" rx="22" fill="#B8307E" data-id="rect-1746307946051-10"/>
<path d="M26.9699 29.81L17.0299 29.81C15.4616 29.81 14.1899 28.5384 14.1899 26.97L14.1899 17.03C14.1899 15.4616 15.4616 14.19 17.0299 14.19L26.9699 14.19C28.5383 14.19 29.8099 15.4616 29.8099 17.03L29.8099 26.97C29.8099 28.5384 28.5383 29.81 26.9699 29.81Z" stroke="white" stroke-width="1.704" stroke-miterlimit="10" stroke-linecap="round" data-id="path-1746307946051-11"/>
<path d="M22 26.26C24.3527 26.26 26.26 24.3527 26.26 22C26.26 19.6473 24.3527 17.74 22 17.74C19.6473 17.74 17.74 19.6473 17.74 22C17.74 24.3527 19.6473 26.26 22 26.26Z" stroke="white" stroke-width="1.704" stroke-miterlimit="10" stroke-linecap="square" data-id="path-1746307946051-12"/>
<path d="M17 17.71C17.3922 17.71 17.71 17.3921 17.71 17C17.71 16.6079 17.3922 16.29 17 16.29C16.6079 16.29 16.29 16.6079 16.29 17C16.29 17.3921 16.6079 17.71 17 17.71Z" fill="white" data-id="path-1746307946051-13"/>
</svg>