<svg xmlns="http://www.w3.org/2000/svg" width="44" height="44" viewBox="0 0 44 44" fill="none" data-id="root">
<rect width="44" height="44" rx="22" fill="#108AF5" data-id="rect-1746307670467-2"/>
<path d="M29.9674 15.6845C29.9413 15.5643 29.8524 15.4675 29.7349 15.431C29.5248 15.3896 29.3075 15.4051 29.1054 15.476C29.1054 15.476 15.0869 20.5145 14.2864 21.0725C14.1134 21.1925 14.0559 21.262 14.0274 21.3445C13.8889 21.7415 14.3199 21.9165 14.3199 21.9165L17.9329 23.094C17.994 23.1046 18.0566 23.1008 18.1159 23.083C18.9379 22.564 26.3854 17.861 26.8159 17.703C26.8834 17.6825 26.9334 17.703 26.9224 17.753C26.7464 18.356 20.3149 24.0715 20.2794 24.1065C20.2444 24.1352 20.2257 24.1793 20.2294 24.2245L19.8934 27.75C19.8934 27.75 19.7524 28.85 20.8504 27.75C21.6289 26.9705 22.3759 26.3255 22.7504 26.012C23.9929 26.8695 25.3299 27.818 25.9064 28.312C26.1019 28.5018 26.3661 28.604 26.6384 28.595C27.1884 28.574 27.3384 27.9725 27.3384 27.9725C27.3384 27.9725 29.8924 17.695 29.9784 16.3175C29.9864 16.1825 29.9979 16.096 29.9989 16.0035C30.0035 15.8962 29.9929 15.7888 29.9674 15.6845Z" fill="white" data-id="path-1746307670467-3"/>
</svg>