<svg xmlns="http://www.w3.org/2000/svg" width="44" height="44" viewBox="0 0 44 44" fill="none" data-id="root">
<rect width="44" height="44" rx="22" fill="#379AE6" data-id="rect-1746307702432-4"/>
<path fill-rule="evenodd" clip-rule="evenodd" d="M27.1885 14.5L16.8115 14.5C15.5349 14.5 14.5 15.5349 14.5 16.8115L14.5 27.1885C14.5 28.4651 15.5349 29.5 16.8115 29.5L27.1885 29.5C27.8015 29.5 28.3895 29.2565 28.823 28.823C29.2565 28.3895 29.5 27.8015 29.5 27.1885L29.5 16.8115C29.5 15.5349 28.4651 14.5 27.1885 14.5ZM26.814 25.0605H25.55C25.138 25.0605 25.0865 24.7605 24.3315 24.039C23.6945 23.4105 23.4215 23.361 23.267 23.361C23.1295 23.361 23.0355 23.464 23.0355 23.704V24.6655C23.0355 24.9485 22.872 25.06 22.203 25.06C21.103 25.06 19.8855 24.3815 18.958 23.129C17.5765 21.266 17.2245 19.8755 17.2245 19.575C17.2226 19.5001 17.2521 19.4279 17.3058 19.3757C17.3596 19.3236 17.4327 19.2963 17.5075 19.3005H18.634C18.926 19.3005 19.0375 19.3865 19.14 19.695C19.6555 21.206 20.5735 22.5365 20.96 22.5365C21.1055 22.5365 21.123 22.4165 21.123 22.107V20.5705C21.123 19.8255 20.7025 19.7635 20.7025 19.489C20.7043 19.4333 20.7295 19.381 20.772 19.345C20.8145 19.309 20.8703 19.2926 20.9255 19.3H22.7255C22.966 19.3 23 19.386 23 19.678L23 21.764C23 22.002 23.05 22.09 23.155 22.09C23.286 22.09 23.405 22.011 23.644 21.747C24.1794 21.1013 24.6328 20.392 24.994 19.635C25.056 19.4548 25.2339 19.3411 25.4235 19.3605H26.55C26.773 19.3605 26.8675 19.4805 26.8245 19.695C26.6955 20.295 25.3995 22.124 25.3995 22.124C25.2795 22.313 25.228 22.416 25.3995 22.596C25.5195 22.751 25.8995 23.0855 26.129 23.396C26.6955 23.996 27.0645 24.503 27.0645 24.787C27.063 25 26.943 25.0605 26.814 25.0605Z" fill="white" data-id="path-1746307702432-5"/>
</svg>