<svg xmlns="http://www.w3.org/2000/svg" width="44" height="44" viewBox="0 0 44 44" fill="none" data-id="root">
<rect width="44" height="44" rx="22" fill="#DE3B40" data-id="rect-1746307601553-0"/>
<path d="M29.85 18.8C29.85 18.8 29.7 17.7 29.2 17.2C28.6 16.55 27.9 16.55 27.6 16.5C25.35 16.35 22 16.35 22 16.35C22 16.35 18.65 16.35 16.4 16.5C16.1 16.55 15.4 16.55 14.8 17.2C14.3 17.7 14.15 18.8 14.15 18.8C14.15 18.8 14 20.1 14 21.4L14 22.6C14 23.9 14.15 25.2 14.15 25.2C14.15 25.2 14.3 26.3 14.8 26.8C15.4 27.45 16.2 27.4 16.55 27.5C17.85 27.6 22 27.65 22 27.65C22 27.65 25.35 27.65 27.6 27.5C27.9 27.45 28.6 27.45 29.2 26.8C29.7 26.3 29.85 25.2 29.85 25.2C29.85 25.2 30 23.9 30 22.6L30 21.4C30 20.1 29.85 18.8 29.85 18.8ZM20.35 24.1L20.35 19.6L24.65 21.85L20.35 24.1Z" fill="white" data-id="path-1746307601553-1"/>
</svg>