<svg xmlns="http://www.w3.org/2000/svg" viewBox="0 0 100 100">
  <path fill="#000" d="M52.9 47.1V13.6c0-1.3-.8-2.6-2.1-3.1-1.3-.5-2.7-.2-3.7.7L18.3 35.8c-1 .9-1.4 2.2-1 3.5.5 1.3 1.7 2.1 3.1 2.1h33.5zM47.1 52.9v33.5c0 1.3.8 2.6 2.1 3.1 1.3.5 2.7.2 3.7-.7l28.7-24.6c1-.9 1.4-2.2 1-3.5-.5-1.3-1.7-2.1-3.1-2.1H52.9zM47.1 47.1H13.6c-1.3 0-2.6.8-3.1 2.1-.5 1.3-.2 2.7.7 3.7l24.6 28.7c.9 1 2.2 1.4 3.5 1 1.3-.5 2.1-1.7 2.1-3.1V52.9zM52.9 52.9h33.5c1.3 0 2.6-.8 3.1-2.1.5-1.3.2-2.7-.7-3.7L64.2 18.3c-.9-1-2.2-1.4-3.5-1-1.3.5-2.1 1.7-2.1 3.1v33.5z"/>
</svg>