<svg viewBox="0 0 24 24" fill="none" xmlns="http://www.w3.org/2000/svg">
  <path d="M23 2.999a10.975 10.975 0 0 1-3.14.86A5.448 5.448 0 0 0 22.38.36a10.937 10.937 0 0 1-3.45 1.33A5.464 5.464 0 0 0 11.5 6.57c0 .43.05.84.14 1.23A15.505 15.505 0 0 1 1.67 1.87a5.463 5.463 0 0 0 1.69 7.28A5.404 5.404 0 0 1 .96 8.5v.06a5.468 5.468 0 0 0 4.39 5.35 5.51 5.51 0 0 1-2.43.09 5.471 5.471 0 0 0 5.1 3.8A10.963 10.963 0 0 1 0 21.54a15.472 15.472 0 0 0 8.38 2.46c10.05 0 15.55-8.33 15.55-15.55 0-.24 0-.47-.02-.7A11.066 11.066 0 0 0 23 2.998Z" fill="#1DA1F2"/>
</svg>
