<svg viewBox="0 0 24 24" xmlns="http://www.w3.org/2000/svg">
  <path fill="#4C75A3" d="M12 0C5.373 0 0 5.373 0 12c0 5.042 3.163 9.334 7.594 11.073.555.101.76-.241.76-.537 0-.264-.009-.965-.015-1.895-3.088.671-3.738-1.487-3.738-1.487-.504-1.279-1.233-1.62-1.233-1.62-.998-.682.076-.668.076-.668 1.104.078 1.683 1.136 1.683 1.136.981 1.68 2.574 1.194 3.202.913.099-.711.385-1.194.702-1.47-2.463-.28-5.053-1.231-5.053-5.478 0-1.21.432-2.198 1.141-2.972-.114-.28-.495-1.412.108-2.945 0 0 .93-.298 3.05 1.133.884-.246 1.83-.369 2.772-.373.942.004 1.888.127 2.772.373 2.12-1.431 3.048-1.133 3.048-1.133.605 1.533.223 2.665.11 2.945.71.774 1.14 1.762 1.14 2.972 0 4.258-2.593 5.196-5.064 5.47.396.34.747 1.007.747 2.029 0 1.464-.013 2.643-.013 3.003 0 .298.203.643.767.534C20.84 21.33 24 17.042 24 12c0-6.627-5.373-12-12-12z"/>
</svg>